SplineFontDB: 3.0
FontName: Ramasuri
FullName: Ramasuri
FamilyName: Ramasuri
Weight: Bold
Copyright: Created by Vista Ridar with FontForge 2.0 (http://fontforge.sf.net)
Version: 001.000
ItalicAngle: 0
UnderlinePosition: -86
UnderlineWidth: 86
Ascent: 1440
Descent: 0
LayerCount: 2
Layer: 0 1 "Back"  1
Layer: 1 1 "Zeichenebene"  0
XUID: [1021 130 1261025583 14275977]
FSType: 8
OS2Version: 1
OS2_WeightWidthSlopeOnly: 0
OS2_UseTypoMetrics: 1
CreationTime: 1312784314
ModificationTime: 1312937148
PfmFamily: 17
TTFWeight: 700
TTFWidth: 5
LineGap: 130
VLineGap: 0
Panose: 2 0 6 3 0 0 0 0 0 0
OS2TypoAscent: 0
OS2TypoAOffset: 1
OS2TypoDescent: 0
OS2TypoDOffset: 1
OS2TypoLinegap: 130
OS2WinAscent: 0
OS2WinAOffset: 1
OS2WinDescent: 0
OS2WinDOffset: 1
HheadAscent: 0
HheadAOffset: 1
HheadDescent: 0
HheadDOffset: 1
OS2SubXSize: 936
OS2SubYSize: 1007
OS2SubXOff: 0
OS2SubYOff: 201
OS2SupXSize: 936
OS2SupYSize: 1007
OS2SupXOff: 0
OS2SupYOff: 691
OS2StrikeYSize: 71
OS2StrikeYPos: 372
OS2Vendor: 'PfEd'
OS2CodePages: 00000001.00000000
OS2UnicodeRanges: 00000003.00000000.00000000.00000000
DEI: 91125
ShortTable: cvt  2
  48
  912
EndShort
ShortTable: maxp 16
  1
  0
  192
  40
  3
  0
  0
  2
  0
  1
  1
  0
  64
  46
  0
  0
EndShort

StartChar: .notdef
Encoding: 65536 -1 0
Width: 528
Flags: W
LayerCount: 2
Fore
SplineSet
48 0 m 1,0,-1
 48 960 l 1,1,-1
 432 960 l 1,2,-1
 432 0 l 1,3,-1
 48 0 l 1,0,-1
96 48 m 1,4,-1
 384 48 l 1,5,-1
 384 912 l 1,6,-1
 96 912 l 1,7,-1
 96 48 l 1,4,-1
EndSplineSet
Validated: 1
EndChar

StartChar: zero
Encoding: 48 48 19
Width: 960
Flags: W
LayerCount: 2
Fore
SplineSet
480 1320 m 128,-1,1
 629 1320 629 1320 734.5 1214.5 c 128,-1,2
 840 1109 840 1109 840 960 c 2,3,-1
 840 480 l 2,4,5
 840 331 840 331 734.5 225.5 c 128,-1,6
 629 120 629 120 480 120 c 128,-1,7
 331 120 331 120 225.5 225.5 c 128,-1,8
 120 331 120 331 120 480 c 2,9,-1
 120 960 l 2,10,11
 120 1109 120 1109 225.5 1214.5 c 128,-1,0
 331 1320 331 1320 480 1320 c 128,-1,1
480 1080 m 128,-1,13
 430 1080 430 1080 395 1045 c 128,-1,14
 360 1010 360 1010 360 960 c 2,15,-1
 360 480 l 2,16,17
 360 430 360 430 395 395 c 128,-1,18
 430 360 430 360 480 360 c 128,-1,19
 530 360 530 360 565 395 c 128,-1,20
 600 430 600 430 600 480 c 2,21,-1
 600 960 l 2,22,23
 600 1010 600 1010 565 1045 c 128,-1,12
 530 1080 530 1080 480 1080 c 128,-1,13
EndSplineSet
Validated: 1
EndChar

StartChar: one
Encoding: 49 49 20
Width: 480
Flags: W
LayerCount: 2
Fore
SplineSet
120 1299 m 1,0,1
 226 1262 226 1262 293 1169 c 128,-1,2
 360 1076 360 1076 360 960 c 2,3,-1
 360 480 l 2,4,5
 360 364 360 364 293 271 c 128,-1,6
 226 178 226 178 120 141 c 1,7,-1
 120 480 l 1,8,-1
 120 960 l 1,9,-1
 120 1299 l 1,0,1
EndSplineSet
Validated: 1
EndChar

StartChar: two
Encoding: 50 50 21
Width: 960
Flags: W
LayerCount: 2
Fore
SplineSet
480 1320 m 0,0,1
 629 1320 629 1320 734.5 1214.5 c 128,-1,2
 840 1109 840 1109 840 960 c 128,-1,3
 840 811 840 811 734.5 705.5 c 128,-1,4
 629 600 629 600 480 600 c 0,5,6
 430 600 430 600 395 565 c 128,-1,7
 360 530 360 530 360 480 c 2,8,-1
 360 141 l 1,9,10
 254 178 254 178 187 271 c 128,-1,11
 120 364 120 364 120 480 c 0,12,13
 120 629 120 629 225.5 734.5 c 128,-1,14
 331 840 331 840 480 840 c 0,15,16
 530 840 530 840 565 875 c 128,-1,17
 600 910 600 910 600 960 c 128,-1,18
 600 1010 600 1010 565 1045 c 128,-1,19
 530 1080 530 1080 480 1080 c 2,20,-1
 141 1080 l 1,21,22
 178 1186 178 1186 271 1253 c 128,-1,23
 364 1320 364 1320 480 1320 c 0,0,1
EndSplineSet
Validated: 1
EndChar

StartChar: three
Encoding: 51 51 22
Width: 960
Flags: W
LayerCount: 2
Fore
SplineSet
480 1320 m 0,0,1
 629 1320 629 1320 734.5 1214.5 c 128,-1,2
 840 1109 840 1109 840 960 c 0,3,4
 840 822 840 822 748 720 c 1,5,6
 840 618 840 618 840 480 c 0,7,8
 840 331 840 331 734.5 225.5 c 128,-1,9
 629 120 629 120 480 120 c 0,10,11
 364 120 364 120 271 187 c 128,-1,12
 178 254 178 254 141 360 c 1,13,-1
 480 360 l 2,14,15
 530 360 530 360 565 395 c 128,-1,16
 600 430 600 430 600 480 c 128,-1,17
 600 530 600 530 565 565 c 128,-1,18
 530 600 530 600 480 600 c 0,19,20
 401 600 401 600 331.5 632 c 128,-1,21
 262 664 262 664 212 720 c 1,22,23
 262 776 262 776 331.5 808 c 128,-1,24
 401 840 401 840 480 840 c 0,25,26
 530 840 530 840 565 875 c 128,-1,27
 600 910 600 910 600 960 c 128,-1,28
 600 1010 600 1010 565 1045 c 128,-1,29
 530 1080 530 1080 480 1080 c 2,30,-1
 141 1080 l 1,31,32
 179 1186 179 1186 271.5 1253 c 128,-1,33
 364 1320 364 1320 480 1320 c 0,0,1
EndSplineSet
Validated: 1
EndChar

StartChar: four
Encoding: 52 52 23
Width: 960
Flags: W
LayerCount: 2
Fore
SplineSet
360 1299 m 1,0,-1
 360 960 l 2,1,2
 360 910 360 910 395 875 c 128,-1,3
 430 840 430 840 480 840 c 128,-1,4
 530 840 530 840 565 875 c 128,-1,5
 600 910 600 910 600 960 c 2,6,-1
 600 1299 l 1,7,8
 706 1262 706 1262 773 1169 c 128,-1,9
 840 1076 840 1076 840 960 c 0,10,11
 840 823 840 823 748 720 c 1,12,13
 840 617 840 617 840 480 c 0,14,15
 840 364 840 364 773 271 c 128,-1,16
 706 178 706 178 600 141 c 1,17,-1
 600 480 l 2,18,19
 600 530 600 530 565 565 c 128,-1,20
 530 600 530 600 480 600 c 0,21,22
 331 600 331 600 225.5 705.5 c 128,-1,23
 120 811 120 811 120 960 c 0,24,25
 120 1076 120 1076 187 1169 c 128,-1,26
 254 1262 254 1262 360 1299 c 1,0,-1
EndSplineSet
Validated: 1
EndChar

StartChar: five
Encoding: 53 53 24
Width: 960
Flags: W
LayerCount: 2
Fore
SplineSet
480 120 m 0,0,1
 364 120 364 120 271 187 c 128,-1,2
 178 254 178 254 140 360 c 1,3,-1
 480 360 l 2,4,5
 530 360 530 360 565 395 c 128,-1,6
 600 430 600 430 600 480 c 128,-1,7
 600 530 600 530 565 565 c 128,-1,8
 530 600 530 600 480 600 c 0,9,10
 332 600 332 600 226 706 c 128,-1,11
 120 812 120 812 120 960 c 0,12,13
 120 1076 120 1076 187 1169 c 128,-1,14
 254 1262 254 1262 360 1300 c 1,15,-1
 360 960 l 2,16,17
 360 910 360 910 395 875 c 128,-1,18
 430 840 430 840 480 840 c 0,19,20
 628 840 628 840 734 734 c 128,-1,21
 840 628 840 628 840 480 c 128,-1,22
 840 332 840 332 734 226 c 128,-1,23
 628 120 628 120 480 120 c 0,0,1
EndSplineSet
Validated: 1
EndChar

StartChar: six
Encoding: 54 54 25
Width: 960
Flags: W
LayerCount: 2
Fore
SplineSet
120 960 m 0,0,1
 120 1109 120 1109 225.5 1214.5 c 128,-1,2
 331 1320 331 1320 480 1320 c 0,3,4
 596 1320 596 1320 689 1253 c 128,-1,5
 782 1186 782 1186 819 1080 c 1,6,-1
 480 1080 l 2,7,8
 430 1080 430 1080 395 1045 c 128,-1,9
 360 1010 360 1010 360 960 c 128,-1,10
 360 910 360 910 395 875 c 128,-1,11
 430 840 430 840 480 840 c 0,12,13
 629 840 629 840 734.5 734.5 c 128,-1,14
 840 629 840 629 840 480 c 128,-1,15
 840 331 840 331 734.5 225.5 c 128,-1,16
 629 120 629 120 480 120 c 128,-1,17
 331 120 331 120 225.5 225.5 c 128,-1,18
 120 331 120 331 120 480 c 0,19,20
 120 617 120 617 212 720 c 1,21,22
 120 823 120 823 120 960 c 0,0,1
480 600 m 128,-1,24
 430 600 430 600 395 565 c 128,-1,25
 360 530 360 530 360 480 c 128,-1,26
 360 430 360 430 395 395 c 128,-1,27
 430 360 430 360 480 360 c 128,-1,28
 530 360 530 360 565 395 c 128,-1,29
 600 430 600 430 600 480 c 128,-1,30
 600 530 600 530 565 565 c 128,-1,23
 530 600 530 600 480 600 c 128,-1,24
EndSplineSet
Validated: 1
EndChar

StartChar: seven
Encoding: 55 55 26
Width: 960
Flags: W
LayerCount: 2
Fore
SplineSet
480 1320 m 0,0,1
 629 1320 629 1320 734.5 1214.5 c 128,-1,2
 840 1109 840 1109 840 960 c 2,3,-1
 840 480 l 2,4,5
 840 364 840 364 773 271 c 128,-1,6
 706 178 706 178 600 141 c 1,7,-1
 600 480 l 1,8,-1
 600 960 l 2,9,10
 600 1010 600 1010 565 1045 c 128,-1,11
 530 1080 530 1080 480 1080 c 2,12,-1
 141 1080 l 1,13,14
 178 1186 178 1186 271 1253 c 128,-1,15
 364 1320 364 1320 480 1320 c 0,0,1
EndSplineSet
Validated: 1
EndChar

StartChar: eight
Encoding: 56 56 27
Width: 960
Flags: W
LayerCount: 2
Fore
SplineSet
480 1320 m 128,-1,1
 629 1320 629 1320 734.5 1214.5 c 128,-1,2
 840 1109 840 1109 840 960 c 0,3,4
 840 823 840 823 748 720 c 1,5,6
 840 617 840 617 840 480 c 0,7,8
 840 331 840 331 734.5 225.5 c 128,-1,9
 629 120 629 120 480 120 c 128,-1,10
 331 120 331 120 225.5 225.5 c 128,-1,11
 120 331 120 331 120 480 c 0,12,13
 120 617 120 617 212 720 c 1,14,15
 120 823 120 823 120 960 c 0,16,17
 120 1109 120 1109 225.5 1214.5 c 128,-1,0
 331 1320 331 1320 480 1320 c 128,-1,1
480 1080 m 128,-1,19
 430 1080 430 1080 395 1045 c 128,-1,20
 360 1010 360 1010 360 960 c 128,-1,21
 360 910 360 910 395 875 c 128,-1,22
 430 840 430 840 480 840 c 128,-1,23
 530 840 530 840 565 875 c 128,-1,24
 600 910 600 910 600 960 c 128,-1,25
 600 1010 600 1010 565 1045 c 128,-1,18
 530 1080 530 1080 480 1080 c 128,-1,19
480 600 m 128,-1,27
 430 600 430 600 395 565 c 128,-1,28
 360 530 360 530 360 480 c 128,-1,29
 360 430 360 430 395 395 c 128,-1,30
 430 360 430 360 480 360 c 128,-1,31
 530 360 530 360 565 395 c 128,-1,32
 600 430 600 430 600 480 c 128,-1,33
 600 530 600 530 565 565 c 128,-1,26
 530 600 530 600 480 600 c 128,-1,27
EndSplineSet
Validated: 1
EndChar

StartChar: nine
Encoding: 57 57 28
Width: 960
Flags: W
LayerCount: 2
Fore
SplineSet
840 480 m 0,0,1
 840 331 840 331 734.5 225.5 c 128,-1,2
 629 120 629 120 480 120 c 0,3,4
 364 120 364 120 271 187 c 128,-1,5
 178 254 178 254 141 360 c 1,6,-1
 480 360 l 2,7,8
 530 360 530 360 565 395 c 128,-1,9
 600 430 600 430 600 480 c 128,-1,10
 600 530 600 530 565 565 c 128,-1,11
 530 600 530 600 480 600 c 0,12,13
 331 600 331 600 225.5 705.5 c 128,-1,14
 120 811 120 811 120 960 c 128,-1,15
 120 1109 120 1109 225.5 1214.5 c 128,-1,16
 331 1320 331 1320 480 1320 c 128,-1,17
 629 1320 629 1320 734.5 1214.5 c 128,-1,18
 840 1109 840 1109 840 960 c 0,19,20
 840 823 840 823 748 720 c 1,21,22
 840 617 840 617 840 480 c 0,0,1
480 840 m 128,-1,24
 530 840 530 840 565 875 c 128,-1,25
 600 910 600 910 600 960 c 128,-1,26
 600 1010 600 1010 565 1045 c 128,-1,27
 530 1080 530 1080 480 1080 c 128,-1,28
 430 1080 430 1080 395 1045 c 128,-1,29
 360 1010 360 1010 360 960 c 128,-1,30
 360 910 360 910 395 875 c 128,-1,23
 430 840 430 840 480 840 c 128,-1,24
EndSplineSet
Validated: 1
EndChar

StartChar: A
Encoding: 65 65 35
Width: 960
Flags: W
LayerCount: 2
Fore
SplineSet
480 1320 m 128,-1,1
 629 1320 629 1320 734.5 1214.5 c 128,-1,2
 840 1109 840 1109 840 960 c 2,3,-1
 840 480 l 2,4,5
 840 364 840 364 773 271 c 128,-1,6
 706 178 706 178 600 141 c 1,7,-1
 600 480 l 1,8,-1
 600 960 l 2,9,10
 600 1010 600 1010 565 1045 c 128,-1,11
 530 1080 530 1080 480 1080 c 128,-1,12
 430 1080 430 1080 395 1045 c 128,-1,13
 360 1010 360 1010 360 960 c 2,14,-1
 360 480 l 1,15,-1
 360 141 l 1,16,17
 254 178 254 178 187 271 c 128,-1,18
 120 364 120 364 120 480 c 2,19,-1
 120 960 l 2,20,21
 120 1109 120 1109 225.5 1214.5 c 128,-1,0
 331 1320 331 1320 480 1320 c 128,-1,1
EndSplineSet
Validated: 1
EndChar

StartChar: B
Encoding: 66 66 36
Width: 960
Flags: W
LayerCount: 2
Fore
SplineSet
360 1299 m 1,0,-1
 360 960 l 2,1,2
 360 910 360 910 395 875 c 128,-1,3
 430 840 430 840 480 840 c 0,4,5
 629 840 629 840 734.5 734.5 c 128,-1,6
 840 629 840 629 840 480 c 128,-1,7
 840 331 840 331 734.5 225.5 c 128,-1,8
 629 120 629 120 480 120 c 128,-1,9
 331 120 331 120 225.5 225.5 c 128,-1,10
 120 331 120 331 120 480 c 0,11,12
 120 617 120 617 212 720 c 1,13,14
 120 823 120 823 120 960 c 0,15,16
 120 1076 120 1076 187 1169 c 128,-1,17
 254 1262 254 1262 360 1299 c 1,0,-1
480 600 m 128,-1,19
 430 600 430 600 395 565 c 128,-1,20
 360 530 360 530 360 480 c 128,-1,21
 360 430 360 430 395 395 c 128,-1,22
 430 360 430 360 480 360 c 128,-1,23
 530 360 530 360 565 395 c 128,-1,24
 600 430 600 430 600 480 c 128,-1,25
 600 530 600 530 565 565 c 128,-1,18
 530 600 530 600 480 600 c 128,-1,19
EndSplineSet
Validated: 1
EndChar

StartChar: C
Encoding: 67 67 37
Width: 960
Flags: W
LayerCount: 2
Fore
SplineSet
480 1320 m 0,0,1
 596 1320 596 1320 689 1253 c 128,-1,2
 782 1186 782 1186 819 1080 c 1,3,-1
 480 1080 l 2,4,5
 430 1080 430 1080 395 1045 c 128,-1,6
 360 1010 360 1010 360 960 c 2,7,-1
 360 480 l 2,8,9
 360 430 360 430 395 395 c 128,-1,10
 430 360 430 360 480 360 c 2,11,-1
 819 360 l 1,12,13
 782 254 782 254 689 187 c 128,-1,14
 596 120 596 120 480 120 c 0,15,16
 331 120 331 120 225.5 225.5 c 128,-1,17
 120 331 120 331 120 480 c 1,18,-1
 119 480 l 1,19,-1
 119 967 l 1,20,-1
 120 967 l 1,21,22
 123 1113 123 1113 228 1216.5 c 128,-1,23
 333 1320 333 1320 480 1320 c 0,0,1
EndSplineSet
Validated: 1
EndChar

StartChar: D
Encoding: 68 68 38
Width: 960
Flags: W
LayerCount: 2
Fore
SplineSet
480 120 m 0,0,1
 331 120 331 120 225.5 225.5 c 128,-1,2
 120 331 120 331 120 480 c 128,-1,3
 120 629 120 629 225.5 734.5 c 128,-1,4
 331 840 331 840 480 840 c 0,5,6
 530 840 530 840 565 875 c 128,-1,7
 600 910 600 910 600 960 c 2,8,-1
 600 1299 l 1,9,10
 706 1262 706 1262 773 1169 c 128,-1,11
 840 1076 840 1076 840 960 c 0,12,13
 840 811 840 811 734.5 705.5 c 128,-1,14
 629 600 629 600 480 600 c 0,15,16
 430 600 430 600 395 565 c 128,-1,17
 360 530 360 530 360 480 c 128,-1,18
 360 430 360 430 395 395 c 128,-1,19
 430 360 430 360 480 360 c 2,20,-1
 819 360 l 1,21,22
 782 254 782 254 689 187 c 128,-1,23
 596 120 596 120 480 120 c 0,0,1
EndSplineSet
Validated: 1
EndChar

StartChar: E
Encoding: 69 69 39
Width: 960
Flags: W
LayerCount: 2
Fore
SplineSet
480 1320 m 0,0,1
 596 1320 596 1320 689 1253 c 128,-1,2
 782 1186 782 1186 819 1080 c 1,3,-1
 480 1080 l 2,4,5
 430 1080 430 1080 395 1045 c 128,-1,6
 360 1010 360 1010 360 960 c 128,-1,7
 360 910 360 910 395 875 c 128,-1,8
 430 840 430 840 480 840 c 0,9,10
 559 840 559 840 628.5 808 c 128,-1,11
 698 776 698 776 748 720 c 1,12,13
 698 664 698 664 628.5 632 c 128,-1,14
 559 600 559 600 480 600 c 0,15,16
 430 600 430 600 395 565 c 128,-1,17
 360 530 360 530 360 480 c 128,-1,18
 360 430 360 430 395 395 c 128,-1,19
 430 360 430 360 480 360 c 2,20,-1
 819 360 l 1,21,22
 781 254 781 254 688.5 187 c 128,-1,23
 596 120 596 120 480 120 c 0,24,25
 331 120 331 120 225.5 225.5 c 128,-1,26
 120 331 120 331 120 480 c 0,27,28
 120 618 120 618 212 720 c 1,29,30
 120 822 120 822 120 960 c 0,31,32
 120 1109 120 1109 225.5 1214.5 c 128,-1,33
 331 1320 331 1320 480 1320 c 0,0,1
EndSplineSet
Validated: 1
EndChar

StartChar: F
Encoding: 70 70 40
Width: 960
Flags: W
LayerCount: 2
Fore
SplineSet
480 1320 m 0,0,1
 596 1320 596 1320 689 1253 c 128,-1,2
 782 1186 782 1186 819 1080 c 1,3,-1
 480 1080 l 2,4,5
 430 1080 430 1080 395 1045 c 128,-1,6
 360 1010 360 1010 360 960 c 128,-1,7
 360 910 360 910 395 875 c 128,-1,8
 430 840 430 840 480 840 c 2,9,-1
 819 840 l 1,10,11
 782 734 782 734 689 667 c 128,-1,12
 596 600 596 600 480 600 c 0,13,14
 430 600 430 600 395 565 c 128,-1,15
 360 530 360 530 360 480 c 2,16,-1
 360 141 l 1,17,18
 254 178 254 178 187 271 c 128,-1,19
 120 364 120 364 120 480 c 0,20,21
 120 617 120 617 212 720 c 1,22,23
 120 823 120 823 120 960 c 0,24,25
 120 1109 120 1109 225.5 1214.5 c 128,-1,26
 331 1320 331 1320 480 1320 c 0,0,1
EndSplineSet
Validated: 1
EndChar

StartChar: G
Encoding: 71 71 41
Width: 960
Flags: W
LayerCount: 2
Fore
SplineSet
480 1320 m 0,0,1
 596 1320 596 1320 689 1253 c 128,-1,2
 782 1186 782 1186 819 1080 c 1,3,-1
 480 1080 l 2,4,5
 430 1080 430 1080 395 1045 c 128,-1,6
 360 1010 360 1010 360 960 c 2,7,-1
 360 819 l 1,8,-1
 360 480 l 2,9,10
 360 430 360 430 395 395 c 128,-1,11
 430 360 430 360 480 360 c 128,-1,12
 530 360 530 360 565 395 c 128,-1,13
 600 430 600 430 600 480 c 2,14,-1
 600 819 l 1,15,16
 706 782 706 782 773 689 c 128,-1,17
 840 596 840 596 840 480 c 0,18,19
 840 331 840 331 734.5 225.5 c 128,-1,20
 629 120 629 120 480 120 c 128,-1,21
 331 120 331 120 225.5 225.5 c 128,-1,22
 120 331 120 331 120 480 c 2,23,-1
 120 960 l 2,24,25
 120 1109 120 1109 225.5 1214.5 c 128,-1,26
 331 1320 331 1320 480 1320 c 0,0,1
EndSplineSet
Validated: 1
EndChar

StartChar: H
Encoding: 72 72 42
Width: 960
Flags: W
LayerCount: 2
Fore
SplineSet
600 141 m 1,0,-1
 600 480 l 2,1,2
 600 530 600 530 565 565 c 128,-1,3
 530 600 530 600 480 600 c 128,-1,4
 430 600 430 600 395 565 c 128,-1,5
 360 530 360 530 360 480 c 2,6,-1
 360 141 l 1,7,8
 254 178 254 178 187 271 c 128,-1,9
 120 364 120 364 120 480 c 0,10,11
 120 617 120 617 212 720 c 1,12,13
 120 823 120 823 120 960 c 0,14,15
 120 1076 120 1076 187 1169 c 128,-1,16
 254 1262 254 1262 360 1299 c 1,17,-1
 360 960 l 2,18,19
 360 910 360 910 395 875 c 128,-1,20
 430 840 430 840 480 840 c 0,21,22
 629 840 629 840 734.5 734.5 c 128,-1,23
 840 629 840 629 840 480 c 0,24,25
 840 364 840 364 773 271 c 128,-1,26
 706 178 706 178 600 141 c 1,0,-1
EndSplineSet
Validated: 1
EndChar

StartChar: I
Encoding: 73 73 43
Width: 480
Flags: W
LayerCount: 2
Fore
SplineSet
360 1300 m 1,0,1
 360 1300 360 1300 360 960 c 2,2,-1
 360 480 l 1,3,-1
 360 140 l 1,4,5
 254 178 254 178 187 271 c 128,-1,6
 120 364 120 364 120 480 c 2,7,-1
 120 960 l 2,8,9
 120 1076 120 1076 187 1169 c 128,-1,10
 254 1262 254 1262 360 1300 c 1,0,1
EndSplineSet
Validated: 1
EndChar

StartChar: J
Encoding: 74 74 44
Width: 960
Flags: W
LayerCount: 2
Fore
SplineSet
600 1299 m 1,0,1
 706 1262 706 1262 773 1169 c 128,-1,2
 840 1076 840 1076 840 960 c 2,3,-1
 840 480 l 2,4,5
 840 331 840 331 734.5 225.5 c 128,-1,6
 629 120 629 120 480 120 c 128,-1,7
 331 120 331 120 225.5 225.5 c 128,-1,8
 120 331 120 331 120 480 c 0,9,10
 120 596 120 596 187 689 c 128,-1,11
 254 782 254 782 360 819 c 1,12,-1
 360 480 l 2,13,14
 360 430 360 430 395 395 c 128,-1,15
 430 360 430 360 480 360 c 128,-1,16
 530 360 530 360 565 395 c 128,-1,17
 600 430 600 430 600 480 c 2,18,-1
 600 819 l 1,19,-1
 600 960 l 1,20,-1
 600 1299 l 1,0,1
EndSplineSet
Validated: 1
EndChar

StartChar: K
Encoding: 75 75 45
Width: 960
Flags: W
LayerCount: 2
Fore
SplineSet
360 1299 m 1,0,-1
 360 960 l 2,1,2
 360 910 360 910 395 875 c 128,-1,3
 430 840 430 840 480 840 c 0,4,5
 596 840 596 840 689 773 c 128,-1,6
 782 706 782 706 819 600 c 1,7,-1
 480 600 l 2,8,9
 430 600 430 600 395 565 c 128,-1,10
 360 530 360 530 360 480 c 128,-1,11
 360 430 360 430 395 395 c 128,-1,12
 430 360 430 360 480 360 c 2,13,-1
 819 360 l 1,14,15
 782 254 782 254 689 187 c 128,-1,16
 596 120 596 120 480 120 c 0,17,18
 331 120 331 120 225.5 225.5 c 128,-1,19
 120 331 120 331 120 480 c 0,20,21
 120 617 120 617 212 720 c 1,22,23
 120 823 120 823 120 960 c 0,24,25
 120 1076 120 1076 187 1169 c 128,-1,26
 254 1262 254 1262 360 1299 c 1,0,-1
EndSplineSet
Validated: 1
EndChar

StartChar: L
Encoding: 76 76 46
Width: 960
Flags: W
LayerCount: 2
Fore
SplineSet
360 1299 m 1,0,-1
 360 960 l 1,1,-1
 360 480 l 2,2,3
 360 430 360 430 395 395 c 128,-1,4
 430 360 430 360 480 360 c 2,5,-1
 819 360 l 1,6,7
 782 254 782 254 689 187 c 128,-1,8
 596 120 596 120 480 120 c 0,9,10
 331 120 331 120 225.5 225.5 c 128,-1,11
 120 331 120 331 120 480 c 2,12,-1
 120 960 l 2,13,14
 120 1076 120 1076 187 1169 c 128,-1,15
 254 1262 254 1262 360 1299 c 1,0,-1
EndSplineSet
Validated: 1
EndChar

StartChar: M
Encoding: 77 77 47
Width: 1440
Flags: W
LayerCount: 2
Fore
SplineSet
480 1320 m 0,0,1
 617 1320 617 1320 720 1228 c 1,2,3
 823 1320 823 1320 960 1320 c 0,4,5
 1109 1320 1109 1320 1214.5 1214.5 c 128,-1,6
 1320 1109 1320 1109 1320 960 c 2,7,-1
 1320 480 l 1,8,-1
 1319 480 l 1,9,10
 1311 373 1311 373 1245 288.5 c 128,-1,11
 1179 204 1179 204 1080 169 c 1,12,-1
 1080 960 l 2,13,14
 1080 1010 1080 1010 1045 1045 c 128,-1,15
 1010 1080 1010 1080 960 1080 c 128,-1,16
 910 1080 910 1080 875 1045 c 128,-1,17
 840 1010 840 1010 840 960 c 2,18,-1
 840 480 l 1,19,-1
 839 480 l 1,20,21
 828 337 828 337 720 240 c 1,22,23
 612 337 612 337 601 480 c 1,24,-1
 600 480 l 1,25,-1
 600 960 l 2,26,27
 600 1010 600 1010 565 1045 c 128,-1,28
 530 1080 530 1080 480 1080 c 128,-1,29
 430 1080 430 1080 395 1045 c 128,-1,30
 360 1010 360 1010 360 960 c 2,31,-1
 360 169 l 1,32,33
 261 204 261 204 195 288.5 c 128,-1,34
 129 373 129 373 121 480 c 1,35,-1
 120 480 l 1,36,-1
 120 960 l 2,37,38
 120 1109 120 1109 225.5 1214.5 c 128,-1,39
 331 1320 331 1320 480 1320 c 0,0,1
EndSplineSet
Validated: 1
EndChar

StartChar: N
Encoding: 78 78 48
Width: 1440
Flags: W
LayerCount: 2
Fore
SplineSet
600 960 m 2,0,1
 600 1010 600 1010 565 1045 c 128,-1,2
 530 1080 530 1080 480 1080 c 128,-1,3
 430 1080 430 1080 395 1045 c 128,-1,4
 360 1010 360 1010 360 960 c 2,5,-1
 360 141 l 1,6,7
 254 178 254 178 187 271 c 128,-1,8
 120 364 120 364 120 480 c 2,9,-1
 120 967 l 1,10,11
 123 1113 123 1113 228 1216.5 c 128,-1,12
 333 1320 333 1320 480 1320 c 0,13,14
 629 1320 629 1320 734.5 1214.5 c 128,-1,15
 840 1109 840 1109 840 960 c 2,16,-1
 840 480 l 2,17,18
 840 430 840 430 875 395 c 128,-1,19
 910 360 910 360 960 360 c 128,-1,20
 1010 360 1010 360 1045 395 c 128,-1,21
 1080 430 1080 430 1080 480 c 2,22,-1
 1080 1299 l 1,23,24
 1186 1262 1186 1262 1253 1169 c 128,-1,25
 1320 1076 1320 1076 1320 960 c 2,26,-1
 1320 480 l 2,27,28
 1320 331 1320 331 1214.5 225.5 c 128,-1,29
 1109 120 1109 120 960 120 c 128,-1,30
 811 120 811 120 705.5 225.5 c 128,-1,31
 600 331 600 331 600 480 c 2,32,-1
 600 960 l 2,0,1
EndSplineSet
Validated: 1
EndChar

StartChar: O
Encoding: 79 79 49
Width: 960
Flags: W
LayerCount: 2
Fore
SplineSet
480 1320 m 128,-1,1
 629 1320 629 1320 734.5 1214.5 c 128,-1,2
 840 1109 840 1109 840 960 c 2,3,-1
 840 480 l 2,4,5
 840 331 840 331 734.5 225.5 c 128,-1,6
 629 120 629 120 480 120 c 128,-1,7
 331 120 331 120 225.5 225.5 c 128,-1,8
 120 331 120 331 120 480 c 2,9,-1
 120 960 l 2,10,11
 120 1109 120 1109 225.5 1214.5 c 128,-1,0
 331 1320 331 1320 480 1320 c 128,-1,1
480 1080 m 128,-1,13
 430 1080 430 1080 395 1045 c 128,-1,14
 360 1010 360 1010 360 960 c 2,15,-1
 360 480 l 2,16,17
 360 430 360 430 395 395 c 128,-1,18
 430 360 430 360 480 360 c 128,-1,19
 530 360 530 360 565 395 c 128,-1,20
 600 430 600 430 600 480 c 2,21,-1
 600 960 l 2,22,23
 600 1010 600 1010 565 1045 c 128,-1,12
 530 1080 530 1080 480 1080 c 128,-1,13
EndSplineSet
Validated: 1
EndChar

StartChar: P
Encoding: 80 80 50
Width: 960
Flags: W
LayerCount: 2
Fore
SplineSet
480 1320 m 128,-1,1
 628 1320 628 1320 734 1214 c 128,-1,2
 840 1108 840 1108 840 960 c 0,3,4
 840 844 840 844 773 751 c 128,-1,5
 706 658 706 658 600 620 c 1,6,-1
 600 960 l 2,7,8
 600 1010 600 1010 565 1045 c 128,-1,9
 530 1080 530 1080 480 1080 c 128,-1,10
 430 1080 430 1080 395 1045 c 128,-1,11
 360 1010 360 1010 360 960 c 2,12,-1
 360 480 l 1,13,-1
 360 140 l 1,14,15
 254 178 254 178 187 271 c 128,-1,16
 120 364 120 364 120 480 c 2,17,-1
 120 960 l 2,18,19
 120 1108 120 1108 226 1214 c 128,-1,0
 332 1320 332 1320 480 1320 c 128,-1,1
EndSplineSet
Validated: 1
EndChar

StartChar: Q
Encoding: 81 81 51
Width: 960
Flags: W
LayerCount: 2
Fore
SplineSet
480 1320 m 128,-1,1
 629 1320 629 1320 734.5 1214.5 c 128,-1,2
 840 1109 840 1109 840 960 c 2,3,-1
 840 480 l 2,4,5
 840 364 840 364 773 271 c 128,-1,6
 706 178 706 178 600 141 c 1,7,-1
 600 480 l 1,8,-1
 600 960 l 2,9,10
 600 1010 600 1010 565 1045 c 128,-1,11
 530 1080 530 1080 480 1080 c 128,-1,12
 430 1080 430 1080 395 1045 c 128,-1,13
 360 1010 360 1010 360 960 c 2,14,-1
 360 621 l 1,15,16
 254 658 254 658 187 751 c 128,-1,17
 120 844 120 844 120 960 c 0,18,19
 120 1109 120 1109 225.5 1214.5 c 128,-1,0
 331 1320 331 1320 480 1320 c 128,-1,1
EndSplineSet
Validated: 1
EndChar

StartChar: R
Encoding: 82 82 52
Width: 960
Flags: W
LayerCount: 2
Fore
SplineSet
600 141 m 1,0,-1
 600 480 l 2,1,2
 600 530 600 530 565 565 c 128,-1,3
 530 600 530 600 480 600 c 0,4,5
 364 600 364 600 271 667 c 128,-1,6
 178 734 178 734 141 840 c 1,7,-1
 480 840 l 2,8,9
 530 840 530 840 565 875 c 128,-1,10
 600 910 600 910 600 960 c 128,-1,11
 600 1010 600 1010 565 1045 c 128,-1,12
 530 1080 530 1080 480 1080 c 2,13,-1
 141 1080 l 1,14,15
 178 1186 178 1186 271 1253 c 128,-1,16
 364 1320 364 1320 480 1320 c 0,17,18
 629 1320 629 1320 734.5 1214.5 c 128,-1,19
 840 1109 840 1109 840 960 c 0,20,21
 840 823 840 823 748 720 c 1,22,23
 840 617 840 617 840 480 c 0,24,25
 840 364 840 364 773 271 c 128,-1,26
 706 178 706 178 600 141 c 1,0,-1
EndSplineSet
Validated: 1
EndChar

StartChar: S
Encoding: 83 83 53
Width: 960
Flags: W
LayerCount: 2
Fore
SplineSet
501 600 m 0,0,1
 356 600 356 600 250.5 702 c 128,-1,2
 145 804 145 804 141 951 c 1,3,-1
 141 960 l 2,4,5
 141 1109 141 1109 246.5 1214.5 c 128,-1,6
 352 1320 352 1320 501 1320 c 0,7,8
 617 1320 617 1320 710 1253 c 128,-1,9
 803 1186 803 1186 840 1080 c 1,10,-1
 501 1080 l 2,11,12
 452 1080 452 1080 416.5 1045 c 128,-1,13
 381 1010 381 1010 381 960 c 128,-1,14
 381 910 381 910 416.5 875 c 128,-1,15
 452 840 452 840 501 840 c 0,16,17
 646 840 646 840 751 738.5 c 128,-1,18
 856 637 856 637 860 489 c 0,19,20
 860 488 860 488 860.5 485 c 128,-1,21
 861 482 861 482 861 480 c 0,22,23
 861 331 861 331 755.5 225.5 c 128,-1,24
 650 120 650 120 501 120 c 0,25,26
 385 120 385 120 291.5 187 c 128,-1,27
 198 254 198 254 161 360 c 1,28,-1
 501 360 l 2,29,30
 550 360 550 360 585.5 395.5 c 128,-1,31
 621 431 621 431 621 480 c 0,32,33
 621 530 621 530 585.5 565 c 128,-1,34
 550 600 550 600 501 600 c 0,0,1
EndSplineSet
Validated: 1
EndChar

StartChar: T
Encoding: 84 84 54
Width: 1440
Flags: W
LayerCount: 2
Fore
SplineSet
480 1320 m 0,0,1
 617 1320 617 1320 720 1228 c 1,2,3
 823 1320 823 1320 960 1320 c 0,4,5
 1076 1320 1076 1320 1169 1253 c 128,-1,6
 1262 1186 1262 1186 1299 1080 c 1,7,-1
 960 1080 l 2,8,9
 910 1080 910 1080 875 1045 c 128,-1,10
 840 1010 840 1010 840 960 c 2,11,-1
 840 480 l 2,12,13
 840 319 840 319 720 212 c 1,14,15
 600 319 600 319 600 480 c 2,16,-1
 600 960 l 2,17,18
 600 1010 600 1010 565 1045 c 128,-1,19
 530 1080 530 1080 480 1080 c 2,20,-1
 141 1080 l 1,21,22
 178 1186 178 1186 271 1253 c 128,-1,23
 364 1320 364 1320 480 1320 c 0,0,1
EndSplineSet
Validated: 1
EndChar

StartChar: U
Encoding: 85 85 55
Width: 960
Flags: W
LayerCount: 2
Fore
SplineSet
480 120 m 128,-1,1
 331 120 331 120 225.5 225.5 c 128,-1,2
 120 331 120 331 120 480 c 2,3,-1
 120 960 l 2,4,5
 120 1076 120 1076 187 1169 c 128,-1,6
 254 1262 254 1262 360 1299 c 1,7,-1
 360 960 l 1,8,-1
 360 480 l 2,9,10
 360 430 360 430 395 395 c 128,-1,11
 430 360 430 360 480 360 c 128,-1,12
 530 360 530 360 565 395 c 128,-1,13
 600 430 600 430 600 480 c 2,14,-1
 600 960 l 1,15,-1
 600 1299 l 1,16,17
 706 1262 706 1262 773 1169 c 128,-1,18
 840 1076 840 1076 840 960 c 2,19,-1
 840 480 l 2,20,21
 840 331 840 331 734.5 225.5 c 128,-1,0
 629 120 629 120 480 120 c 128,-1,1
EndSplineSet
Validated: 1
EndChar

StartChar: V
Encoding: 86 86 56
Width: 960
Flags: W
LayerCount: 2
Fore
SplineSet
480 120 m 128,-1,1
 331 120 331 120 225.5 225.5 c 128,-1,2
 120 331 120 331 120 480 c 2,3,-1
 120 960 l 2,4,5
 120 1076 120 1076 187 1169 c 128,-1,6
 254 1262 254 1262 360 1299 c 1,7,-1
 360 960 l 1,8,-1
 360 480 l 2,9,10
 360 430 360 430 395 395 c 128,-1,11
 430 360 430 360 480 360 c 128,-1,12
 530 360 530 360 565 395 c 128,-1,13
 600 430 600 430 600 480 c 2,14,-1
 600 960 l 1,15,-1
 600 1299 l 1,16,17
 706 1262 706 1262 773 1169 c 128,-1,18
 840 1076 840 1076 840 960 c 2,19,-1
 840 480 l 2,20,21
 840 331 840 331 734.5 225.5 c 128,-1,0
 629 120 629 120 480 120 c 128,-1,1
EndSplineSet
Validated: 1
EndChar

StartChar: W
Encoding: 87 87 57
Width: 1440
Flags: W
LayerCount: 2
Fore
SplineSet
480 120 m 0,0,1
 331 120 331 120 225.5 225.5 c 128,-1,2
 120 331 120 331 120 480 c 2,3,-1
 120 960 l 1,4,-1
 121 960 l 1,5,6
 129 1067 129 1067 195 1151.5 c 128,-1,7
 261 1236 261 1236 360 1271 c 1,8,-1
 360 480 l 2,9,10
 360 430 360 430 395 395 c 128,-1,11
 430 360 430 360 480 360 c 128,-1,12
 530 360 530 360 565 395 c 128,-1,13
 600 430 600 430 600 480 c 2,14,-1
 600 960 l 1,15,-1
 601 960 l 1,16,17
 612 1103 612 1103 720 1200 c 1,18,19
 828 1103 828 1103 839 960 c 1,20,-1
 840 960 l 1,21,-1
 840 480 l 2,22,23
 840 430 840 430 875 395 c 128,-1,24
 910 360 910 360 960 360 c 128,-1,25
 1010 360 1010 360 1045 395 c 128,-1,26
 1080 430 1080 430 1080 480 c 2,27,-1
 1080 1271 l 1,28,29
 1179 1236 1179 1236 1245 1151.5 c 128,-1,30
 1311 1067 1311 1067 1319 960 c 1,31,-1
 1320 960 l 1,32,-1
 1320 480 l 2,33,34
 1320 331 1320 331 1214.5 225.5 c 128,-1,35
 1109 120 1109 120 960 120 c 0,36,37
 823 120 823 120 720 212 c 1,38,39
 617 120 617 120 480 120 c 0,0,1
EndSplineSet
Validated: 1
EndChar

StartChar: X
Encoding: 88 88 58
Width: 960
Flags: W
LayerCount: 2
Fore
SplineSet
360 1299 m 1,0,-1
 360 960 l 2,1,2
 360 910 360 910 395 875 c 128,-1,3
 430 840 430 840 480 840 c 128,-1,4
 530 840 530 840 565 875 c 128,-1,5
 600 910 600 910 600 960 c 2,6,-1
 600 1299 l 1,7,8
 706 1262 706 1262 773 1169 c 128,-1,9
 840 1076 840 1076 840 960 c 0,10,11
 840 823 840 823 748 720 c 1,12,13
 840 617 840 617 840 480 c 0,14,15
 840 364 840 364 773 271 c 128,-1,16
 706 178 706 178 600 141 c 1,17,-1
 600 480 l 2,18,19
 600 530 600 530 565 565 c 128,-1,20
 530 600 530 600 480 600 c 128,-1,21
 430 600 430 600 395 565 c 128,-1,22
 360 530 360 530 360 480 c 2,23,-1
 360 141 l 1,24,25
 254 178 254 178 187 271 c 128,-1,26
 120 364 120 364 120 480 c 0,27,28
 120 617 120 617 212 720 c 1,29,30
 120 823 120 823 120 960 c 0,31,32
 120 1076 120 1076 187 1169 c 128,-1,33
 254 1262 254 1262 360 1299 c 1,0,-1
EndSplineSet
Validated: 1
EndChar

StartChar: Y
Encoding: 89 89 59
Width: 960
Flags: W
LayerCount: 2
Fore
SplineSet
360 1299 m 1,0,-1
 360 960 l 2,1,2
 360 910 360 910 395 875 c 128,-1,3
 430 840 430 840 480 840 c 128,-1,4
 530 840 530 840 565 875 c 128,-1,5
 600 910 600 910 600 960 c 2,6,-1
 600 1299 l 1,7,8
 706 1262 706 1262 773 1169 c 128,-1,9
 840 1076 840 1076 840 960 c 0,10,11
 840 823 840 823 748 720 c 1,12,13
 840 617 840 617 840 480 c 0,14,15
 840 364 840 364 773 271 c 128,-1,16
 706 178 706 178 600 141 c 1,17,-1
 600 480 l 2,18,19
 600 530 600 530 565 565 c 128,-1,20
 530 600 530 600 480 600 c 0,21,22
 331 600 331 600 225.5 705.5 c 128,-1,23
 120 811 120 811 120 960 c 0,24,25
 120 1076 120 1076 187 1169 c 128,-1,26
 254 1262 254 1262 360 1299 c 1,0,-1
EndSplineSet
Validated: 1
EndChar

StartChar: Z
Encoding: 90 90 60
Width: 960
Flags: W
LayerCount: 2
Fore
SplineSet
501 600 m 0,0,1
 452 600 452 600 416.5 565 c 128,-1,2
 381 530 381 530 381 480 c 0,3,4
 381 431 381 431 416.5 395.5 c 128,-1,5
 452 360 452 360 501 360 c 2,6,-1
 840 360 l 1,7,8
 803 254 803 254 710 187 c 128,-1,9
 617 120 617 120 501 120 c 0,10,11
 352 120 352 120 246.5 225.5 c 128,-1,12
 141 331 141 331 141 480 c 2,13,-1
 141 489 l 1,14,15
 145 636 145 636 250.5 738 c 128,-1,16
 356 840 356 840 501 840 c 0,17,18
 550 840 550 840 585.5 875 c 128,-1,19
 621 910 621 910 621 960 c 128,-1,20
 621 1010 621 1010 585.5 1045 c 128,-1,21
 550 1080 550 1080 501 1080 c 2,22,-1
 161 1080 l 1,23,24
 198 1186 198 1186 291.5 1253 c 128,-1,25
 385 1320 385 1320 501 1320 c 0,26,27
 650 1320 650 1320 755.5 1214.5 c 128,-1,28
 861 1109 861 1109 861 960 c 0,29,30
 861 958 861 958 860.5 955 c 128,-1,31
 860 952 860 952 860 951 c 0,32,33
 856 803 856 803 751 701.5 c 128,-1,34
 646 600 646 600 501 600 c 0,0,1
EndSplineSet
Validated: 1
EndChar

StartChar: a
Encoding: 97 97 66
Width: 960
Flags: W
LayerCount: 2
Fore
SplineSet
480 1320 m 128,-1,1
 629 1320 629 1320 734.5 1214.5 c 128,-1,2
 840 1109 840 1109 840 960 c 2,3,-1
 840 480 l 2,4,5
 840 364 840 364 773 271 c 128,-1,6
 706 178 706 178 600 141 c 1,7,-1
 600 480 l 1,8,-1
 600 960 l 2,9,10
 600 1010 600 1010 565 1045 c 128,-1,11
 530 1080 530 1080 480 1080 c 128,-1,12
 430 1080 430 1080 395 1045 c 128,-1,13
 360 1010 360 1010 360 960 c 2,14,-1
 360 480 l 1,15,-1
 360 141 l 1,16,17
 254 178 254 178 187 271 c 128,-1,18
 120 364 120 364 120 480 c 2,19,-1
 120 960 l 2,20,21
 120 1109 120 1109 225.5 1214.5 c 128,-1,0
 331 1320 331 1320 480 1320 c 128,-1,1
EndSplineSet
Validated: 1
EndChar

StartChar: b
Encoding: 98 98 67
Width: 960
Flags: W
LayerCount: 2
Fore
SplineSet
360 1299 m 1,0,-1
 360 960 l 2,1,2
 360 910 360 910 395 875 c 128,-1,3
 430 840 430 840 480 840 c 0,4,5
 629 840 629 840 734.5 734.5 c 128,-1,6
 840 629 840 629 840 480 c 128,-1,7
 840 331 840 331 734.5 225.5 c 128,-1,8
 629 120 629 120 480 120 c 128,-1,9
 331 120 331 120 225.5 225.5 c 128,-1,10
 120 331 120 331 120 480 c 0,11,12
 120 617 120 617 212 720 c 1,13,14
 120 823 120 823 120 960 c 0,15,16
 120 1076 120 1076 187 1169 c 128,-1,17
 254 1262 254 1262 360 1299 c 1,0,-1
480 600 m 128,-1,19
 430 600 430 600 395 565 c 128,-1,20
 360 530 360 530 360 480 c 128,-1,21
 360 430 360 430 395 395 c 128,-1,22
 430 360 430 360 480 360 c 128,-1,23
 530 360 530 360 565 395 c 128,-1,24
 600 430 600 430 600 480 c 128,-1,25
 600 530 600 530 565 565 c 128,-1,18
 530 600 530 600 480 600 c 128,-1,19
EndSplineSet
Validated: 1
EndChar

StartChar: c
Encoding: 99 99 68
Width: 960
Flags: W
LayerCount: 2
Fore
SplineSet
480 1320 m 0,0,1
 596 1320 596 1320 689 1253 c 128,-1,2
 782 1186 782 1186 819 1080 c 1,3,-1
 480 1080 l 2,4,5
 430 1080 430 1080 395 1045 c 128,-1,6
 360 1010 360 1010 360 960 c 2,7,-1
 360 480 l 2,8,9
 360 430 360 430 395 395 c 128,-1,10
 430 360 430 360 480 360 c 2,11,-1
 819 360 l 1,12,13
 782 254 782 254 689 187 c 128,-1,14
 596 120 596 120 480 120 c 0,15,16
 331 120 331 120 225.5 225.5 c 128,-1,17
 120 331 120 331 120 480 c 1,18,-1
 119 480 l 1,19,-1
 119 967 l 1,20,-1
 120 967 l 1,21,22
 123 1113 123 1113 228 1216.5 c 128,-1,23
 333 1320 333 1320 480 1320 c 0,0,1
EndSplineSet
Validated: 1
EndChar

StartChar: d
Encoding: 100 100 69
Width: 960
Flags: W
LayerCount: 2
Fore
SplineSet
480 120 m 0,0,1
 331 120 331 120 225.5 225.5 c 128,-1,2
 120 331 120 331 120 480 c 128,-1,3
 120 629 120 629 225.5 734.5 c 128,-1,4
 331 840 331 840 480 840 c 0,5,6
 530 840 530 840 565 875 c 128,-1,7
 600 910 600 910 600 960 c 2,8,-1
 600 1299 l 1,9,10
 706 1262 706 1262 773 1169 c 128,-1,11
 840 1076 840 1076 840 960 c 0,12,13
 840 811 840 811 734.5 705.5 c 128,-1,14
 629 600 629 600 480 600 c 0,15,16
 430 600 430 600 395 565 c 128,-1,17
 360 530 360 530 360 480 c 128,-1,18
 360 430 360 430 395 395 c 128,-1,19
 430 360 430 360 480 360 c 2,20,-1
 819 360 l 1,21,22
 782 254 782 254 689 187 c 128,-1,23
 596 120 596 120 480 120 c 0,0,1
EndSplineSet
Validated: 1
EndChar

StartChar: e
Encoding: 101 101 70
Width: 960
Flags: W
LayerCount: 2
Fore
SplineSet
480 1320 m 0,0,1
 596 1320 596 1320 689 1253 c 128,-1,2
 782 1186 782 1186 819 1080 c 1,3,-1
 480 1080 l 2,4,5
 430 1080 430 1080 395 1045 c 128,-1,6
 360 1010 360 1010 360 960 c 128,-1,7
 360 910 360 910 395 875 c 128,-1,8
 430 840 430 840 480 840 c 0,9,10
 559 840 559 840 628.5 808 c 128,-1,11
 698 776 698 776 748 720 c 1,12,13
 698 664 698 664 628.5 632 c 128,-1,14
 559 600 559 600 480 600 c 0,15,16
 430 600 430 600 395 565 c 128,-1,17
 360 530 360 530 360 480 c 128,-1,18
 360 430 360 430 395 395 c 128,-1,19
 430 360 430 360 480 360 c 2,20,-1
 819 360 l 1,21,22
 781 254 781 254 688.5 187 c 128,-1,23
 596 120 596 120 480 120 c 0,24,25
 331 120 331 120 225.5 225.5 c 128,-1,26
 120 331 120 331 120 480 c 0,27,28
 120 618 120 618 212 720 c 1,29,30
 120 822 120 822 120 960 c 0,31,32
 120 1109 120 1109 225.5 1214.5 c 128,-1,33
 331 1320 331 1320 480 1320 c 0,0,1
EndSplineSet
Validated: 1
EndChar

StartChar: f
Encoding: 102 102 71
Width: 960
Flags: W
LayerCount: 2
Fore
SplineSet
480 1320 m 0,0,1
 596 1320 596 1320 689 1253 c 128,-1,2
 782 1186 782 1186 819 1080 c 1,3,-1
 480 1080 l 2,4,5
 430 1080 430 1080 395 1045 c 128,-1,6
 360 1010 360 1010 360 960 c 128,-1,7
 360 910 360 910 395 875 c 128,-1,8
 430 840 430 840 480 840 c 2,9,-1
 819 840 l 1,10,11
 782 734 782 734 689 667 c 128,-1,12
 596 600 596 600 480 600 c 0,13,14
 430 600 430 600 395 565 c 128,-1,15
 360 530 360 530 360 480 c 2,16,-1
 360 141 l 1,17,18
 254 178 254 178 187 271 c 128,-1,19
 120 364 120 364 120 480 c 0,20,21
 120 617 120 617 212 720 c 1,22,23
 120 823 120 823 120 960 c 0,24,25
 120 1109 120 1109 225.5 1214.5 c 128,-1,26
 331 1320 331 1320 480 1320 c 0,0,1
EndSplineSet
Validated: 1
EndChar

StartChar: g
Encoding: 103 103 72
Width: 960
Flags: W
LayerCount: 2
Fore
SplineSet
480 1320 m 0,0,1
 596 1320 596 1320 689 1253 c 128,-1,2
 782 1186 782 1186 819 1080 c 1,3,-1
 480 1080 l 2,4,5
 430 1080 430 1080 395 1045 c 128,-1,6
 360 1010 360 1010 360 960 c 2,7,-1
 360 819 l 1,8,-1
 360 480 l 2,9,10
 360 430 360 430 395 395 c 128,-1,11
 430 360 430 360 480 360 c 128,-1,12
 530 360 530 360 565 395 c 128,-1,13
 600 430 600 430 600 480 c 2,14,-1
 600 819 l 1,15,16
 706 782 706 782 773 689 c 128,-1,17
 840 596 840 596 840 480 c 0,18,19
 840 331 840 331 734.5 225.5 c 128,-1,20
 629 120 629 120 480 120 c 128,-1,21
 331 120 331 120 225.5 225.5 c 128,-1,22
 120 331 120 331 120 480 c 2,23,-1
 120 960 l 2,24,25
 120 1109 120 1109 225.5 1214.5 c 128,-1,26
 331 1320 331 1320 480 1320 c 0,0,1
EndSplineSet
Validated: 1
EndChar

StartChar: h
Encoding: 104 104 73
Width: 960
Flags: W
LayerCount: 2
Fore
SplineSet
600 141 m 1,0,-1
 600 480 l 2,1,2
 600 530 600 530 565 565 c 128,-1,3
 530 600 530 600 480 600 c 128,-1,4
 430 600 430 600 395 565 c 128,-1,5
 360 530 360 530 360 480 c 2,6,-1
 360 141 l 1,7,8
 254 178 254 178 187 271 c 128,-1,9
 120 364 120 364 120 480 c 0,10,11
 120 617 120 617 212 720 c 1,12,13
 120 823 120 823 120 960 c 0,14,15
 120 1076 120 1076 187 1169 c 128,-1,16
 254 1262 254 1262 360 1299 c 1,17,-1
 360 960 l 2,18,19
 360 910 360 910 395 875 c 128,-1,20
 430 840 430 840 480 840 c 0,21,22
 629 840 629 840 734.5 734.5 c 128,-1,23
 840 629 840 629 840 480 c 0,24,25
 840 364 840 364 773 271 c 128,-1,26
 706 178 706 178 600 141 c 1,0,-1
EndSplineSet
Validated: 1
EndChar

StartChar: i
Encoding: 105 105 74
Width: 480
Flags: W
LayerCount: 2
Fore
SplineSet
360 1300 m 1,0,1
 360 1300 360 1300 360 960 c 2,2,-1
 360 480 l 1,3,-1
 360 140 l 1,4,5
 254 178 254 178 187 271 c 128,-1,6
 120 364 120 364 120 480 c 2,7,-1
 120 960 l 2,8,9
 120 1076 120 1076 187 1169 c 128,-1,10
 254 1262 254 1262 360 1300 c 1,0,1
EndSplineSet
Validated: 1
EndChar

StartChar: j
Encoding: 106 106 75
Width: 960
Flags: W
LayerCount: 2
Fore
SplineSet
600 1299 m 1,0,1
 706 1262 706 1262 773 1169 c 128,-1,2
 840 1076 840 1076 840 960 c 2,3,-1
 840 480 l 2,4,5
 840 331 840 331 734.5 225.5 c 128,-1,6
 629 120 629 120 480 120 c 128,-1,7
 331 120 331 120 225.5 225.5 c 128,-1,8
 120 331 120 331 120 480 c 0,9,10
 120 596 120 596 187 689 c 128,-1,11
 254 782 254 782 360 819 c 1,12,-1
 360 480 l 2,13,14
 360 430 360 430 395 395 c 128,-1,15
 430 360 430 360 480 360 c 128,-1,16
 530 360 530 360 565 395 c 128,-1,17
 600 430 600 430 600 480 c 2,18,-1
 600 819 l 1,19,-1
 600 960 l 1,20,-1
 600 1299 l 1,0,1
EndSplineSet
Validated: 1
EndChar

StartChar: k
Encoding: 107 107 76
Width: 960
Flags: W
LayerCount: 2
Fore
SplineSet
360 1299 m 1,0,-1
 360 960 l 2,1,2
 360 910 360 910 395 875 c 128,-1,3
 430 840 430 840 480 840 c 0,4,5
 596 840 596 840 689 773 c 128,-1,6
 782 706 782 706 819 600 c 1,7,-1
 480 600 l 2,8,9
 430 600 430 600 395 565 c 128,-1,10
 360 530 360 530 360 480 c 128,-1,11
 360 430 360 430 395 395 c 128,-1,12
 430 360 430 360 480 360 c 2,13,-1
 819 360 l 1,14,15
 782 254 782 254 689 187 c 128,-1,16
 596 120 596 120 480 120 c 0,17,18
 331 120 331 120 225.5 225.5 c 128,-1,19
 120 331 120 331 120 480 c 0,20,21
 120 617 120 617 212 720 c 1,22,23
 120 823 120 823 120 960 c 0,24,25
 120 1076 120 1076 187 1169 c 128,-1,26
 254 1262 254 1262 360 1299 c 1,0,-1
EndSplineSet
Validated: 1
EndChar

StartChar: l
Encoding: 108 108 77
Width: 960
Flags: W
LayerCount: 2
Fore
SplineSet
360 1299 m 1,0,-1
 360 960 l 1,1,-1
 360 480 l 2,2,3
 360 430 360 430 395 395 c 128,-1,4
 430 360 430 360 480 360 c 2,5,-1
 819 360 l 1,6,7
 782 254 782 254 689 187 c 128,-1,8
 596 120 596 120 480 120 c 0,9,10
 331 120 331 120 225.5 225.5 c 128,-1,11
 120 331 120 331 120 480 c 2,12,-1
 120 960 l 2,13,14
 120 1076 120 1076 187 1169 c 128,-1,15
 254 1262 254 1262 360 1299 c 1,0,-1
EndSplineSet
Validated: 1
EndChar

StartChar: m
Encoding: 109 109 78
Width: 1440
Flags: W
LayerCount: 2
Fore
SplineSet
480 1320 m 0,0,1
 617 1320 617 1320 720 1228 c 1,2,3
 823 1320 823 1320 960 1320 c 0,4,5
 1109 1320 1109 1320 1214.5 1214.5 c 128,-1,6
 1320 1109 1320 1109 1320 960 c 2,7,-1
 1320 480 l 1,8,-1
 1319 480 l 1,9,10
 1311 373 1311 373 1245 288.5 c 128,-1,11
 1179 204 1179 204 1080 169 c 1,12,-1
 1080 960 l 2,13,14
 1080 1010 1080 1010 1045 1045 c 128,-1,15
 1010 1080 1010 1080 960 1080 c 128,-1,16
 910 1080 910 1080 875 1045 c 128,-1,17
 840 1010 840 1010 840 960 c 2,18,-1
 840 480 l 1,19,-1
 839 480 l 1,20,21
 828 337 828 337 720 240 c 1,22,23
 612 337 612 337 601 480 c 1,24,-1
 600 480 l 1,25,-1
 600 960 l 2,26,27
 600 1010 600 1010 565 1045 c 128,-1,28
 530 1080 530 1080 480 1080 c 128,-1,29
 430 1080 430 1080 395 1045 c 128,-1,30
 360 1010 360 1010 360 960 c 2,31,-1
 360 169 l 1,32,33
 261 204 261 204 195 288.5 c 128,-1,34
 129 373 129 373 121 480 c 1,35,-1
 120 480 l 1,36,-1
 120 960 l 2,37,38
 120 1109 120 1109 225.5 1214.5 c 128,-1,39
 331 1320 331 1320 480 1320 c 0,0,1
EndSplineSet
Validated: 1
EndChar

StartChar: n
Encoding: 110 110 79
Width: 1440
Flags: W
LayerCount: 2
Fore
SplineSet
600 960 m 2,0,1
 600 1010 600 1010 565 1045 c 128,-1,2
 530 1080 530 1080 480 1080 c 128,-1,3
 430 1080 430 1080 395 1045 c 128,-1,4
 360 1010 360 1010 360 960 c 2,5,-1
 360 141 l 1,6,7
 254 178 254 178 187 271 c 128,-1,8
 120 364 120 364 120 480 c 2,9,-1
 120 967 l 1,10,11
 123 1113 123 1113 228 1216.5 c 128,-1,12
 333 1320 333 1320 480 1320 c 0,13,14
 629 1320 629 1320 734.5 1214.5 c 128,-1,15
 840 1109 840 1109 840 960 c 2,16,-1
 840 480 l 2,17,18
 840 430 840 430 875 395 c 128,-1,19
 910 360 910 360 960 360 c 128,-1,20
 1010 360 1010 360 1045 395 c 128,-1,21
 1080 430 1080 430 1080 480 c 2,22,-1
 1080 1299 l 1,23,24
 1186 1262 1186 1262 1253 1169 c 128,-1,25
 1320 1076 1320 1076 1320 960 c 2,26,-1
 1320 480 l 2,27,28
 1320 331 1320 331 1214.5 225.5 c 128,-1,29
 1109 120 1109 120 960 120 c 128,-1,30
 811 120 811 120 705.5 225.5 c 128,-1,31
 600 331 600 331 600 480 c 2,32,-1
 600 960 l 2,0,1
EndSplineSet
Validated: 1
EndChar

StartChar: o
Encoding: 111 111 80
Width: 960
Flags: W
LayerCount: 2
Fore
SplineSet
480 1320 m 128,-1,1
 629 1320 629 1320 734.5 1214.5 c 128,-1,2
 840 1109 840 1109 840 960 c 2,3,-1
 840 480 l 2,4,5
 840 331 840 331 734.5 225.5 c 128,-1,6
 629 120 629 120 480 120 c 128,-1,7
 331 120 331 120 225.5 225.5 c 128,-1,8
 120 331 120 331 120 480 c 2,9,-1
 120 960 l 2,10,11
 120 1109 120 1109 225.5 1214.5 c 128,-1,0
 331 1320 331 1320 480 1320 c 128,-1,1
480 1080 m 128,-1,13
 430 1080 430 1080 395 1045 c 128,-1,14
 360 1010 360 1010 360 960 c 2,15,-1
 360 480 l 2,16,17
 360 430 360 430 395 395 c 128,-1,18
 430 360 430 360 480 360 c 128,-1,19
 530 360 530 360 565 395 c 128,-1,20
 600 430 600 430 600 480 c 2,21,-1
 600 960 l 2,22,23
 600 1010 600 1010 565 1045 c 128,-1,12
 530 1080 530 1080 480 1080 c 128,-1,13
EndSplineSet
Validated: 1
EndChar

StartChar: p
Encoding: 112 112 81
Width: 960
Flags: W
LayerCount: 2
Fore
SplineSet
480 1320 m 128,-1,1
 628 1320 628 1320 734 1214 c 128,-1,2
 840 1108 840 1108 840 960 c 0,3,4
 840 844 840 844 773 751 c 128,-1,5
 706 658 706 658 600 620 c 1,6,-1
 600 960 l 2,7,8
 600 1010 600 1010 565 1045 c 128,-1,9
 530 1080 530 1080 480 1080 c 128,-1,10
 430 1080 430 1080 395 1045 c 128,-1,11
 360 1010 360 1010 360 960 c 2,12,-1
 360 480 l 1,13,-1
 360 140 l 1,14,15
 254 178 254 178 187 271 c 128,-1,16
 120 364 120 364 120 480 c 2,17,-1
 120 960 l 2,18,19
 120 1108 120 1108 226 1214 c 128,-1,0
 332 1320 332 1320 480 1320 c 128,-1,1
EndSplineSet
Validated: 1
EndChar

StartChar: q
Encoding: 113 113 82
Width: 960
Flags: W
LayerCount: 2
Fore
SplineSet
480 1320 m 128,-1,1
 629 1320 629 1320 734.5 1214.5 c 128,-1,2
 840 1109 840 1109 840 960 c 2,3,-1
 840 480 l 2,4,5
 840 364 840 364 773 271 c 128,-1,6
 706 178 706 178 600 141 c 1,7,-1
 600 480 l 1,8,-1
 600 960 l 2,9,10
 600 1010 600 1010 565 1045 c 128,-1,11
 530 1080 530 1080 480 1080 c 128,-1,12
 430 1080 430 1080 395 1045 c 128,-1,13
 360 1010 360 1010 360 960 c 2,14,-1
 360 621 l 1,15,16
 254 658 254 658 187 751 c 128,-1,17
 120 844 120 844 120 960 c 0,18,19
 120 1109 120 1109 225.5 1214.5 c 128,-1,0
 331 1320 331 1320 480 1320 c 128,-1,1
EndSplineSet
Validated: 1
EndChar

StartChar: r
Encoding: 114 114 83
Width: 960
Flags: W
LayerCount: 2
Fore
SplineSet
600 141 m 1,0,-1
 600 480 l 2,1,2
 600 530 600 530 565 565 c 128,-1,3
 530 600 530 600 480 600 c 0,4,5
 364 600 364 600 271 667 c 128,-1,6
 178 734 178 734 141 840 c 1,7,-1
 480 840 l 2,8,9
 530 840 530 840 565 875 c 128,-1,10
 600 910 600 910 600 960 c 128,-1,11
 600 1010 600 1010 565 1045 c 128,-1,12
 530 1080 530 1080 480 1080 c 2,13,-1
 141 1080 l 1,14,15
 178 1186 178 1186 271 1253 c 128,-1,16
 364 1320 364 1320 480 1320 c 0,17,18
 629 1320 629 1320 734.5 1214.5 c 128,-1,19
 840 1109 840 1109 840 960 c 0,20,21
 840 823 840 823 748 720 c 1,22,23
 840 617 840 617 840 480 c 0,24,25
 840 364 840 364 773 271 c 128,-1,26
 706 178 706 178 600 141 c 1,0,-1
EndSplineSet
Validated: 1
EndChar

StartChar: s
Encoding: 115 115 84
Width: 960
Flags: W
LayerCount: 2
Fore
SplineSet
501 600 m 0,0,1
 356 600 356 600 250.5 702 c 128,-1,2
 145 804 145 804 141 951 c 1,3,-1
 141 960 l 2,4,5
 141 1109 141 1109 246.5 1214.5 c 128,-1,6
 352 1320 352 1320 501 1320 c 0,7,8
 617 1320 617 1320 710 1253 c 128,-1,9
 803 1186 803 1186 840 1080 c 1,10,-1
 501 1080 l 2,11,12
 452 1080 452 1080 416.5 1045 c 128,-1,13
 381 1010 381 1010 381 960 c 128,-1,14
 381 910 381 910 416.5 875 c 128,-1,15
 452 840 452 840 501 840 c 0,16,17
 646 840 646 840 751 738.5 c 128,-1,18
 856 637 856 637 860 489 c 0,19,20
 860 488 860 488 860.5 485 c 128,-1,21
 861 482 861 482 861 480 c 0,22,23
 861 331 861 331 755.5 225.5 c 128,-1,24
 650 120 650 120 501 120 c 0,25,26
 385 120 385 120 291.5 187 c 128,-1,27
 198 254 198 254 161 360 c 1,28,-1
 501 360 l 2,29,30
 550 360 550 360 585.5 395.5 c 128,-1,31
 621 431 621 431 621 480 c 0,32,33
 621 530 621 530 585.5 565 c 128,-1,34
 550 600 550 600 501 600 c 0,0,1
EndSplineSet
Validated: 1
EndChar

StartChar: t
Encoding: 116 116 85
Width: 1440
Flags: W
LayerCount: 2
Fore
SplineSet
480 1320 m 0,0,1
 617 1320 617 1320 720 1228 c 1,2,3
 823 1320 823 1320 960 1320 c 0,4,5
 1076 1320 1076 1320 1169 1253 c 128,-1,6
 1262 1186 1262 1186 1299 1080 c 1,7,-1
 960 1080 l 2,8,9
 910 1080 910 1080 875 1045 c 128,-1,10
 840 1010 840 1010 840 960 c 2,11,-1
 840 480 l 2,12,13
 840 319 840 319 720 212 c 1,14,15
 600 319 600 319 600 480 c 2,16,-1
 600 960 l 2,17,18
 600 1010 600 1010 565 1045 c 128,-1,19
 530 1080 530 1080 480 1080 c 2,20,-1
 141 1080 l 1,21,22
 178 1186 178 1186 271 1253 c 128,-1,23
 364 1320 364 1320 480 1320 c 0,0,1
EndSplineSet
Validated: 1
EndChar

StartChar: u
Encoding: 117 117 86
Width: 960
Flags: W
LayerCount: 2
Fore
SplineSet
480 120 m 128,-1,1
 331 120 331 120 225.5 225.5 c 128,-1,2
 120 331 120 331 120 480 c 2,3,-1
 120 960 l 2,4,5
 120 1076 120 1076 187 1169 c 128,-1,6
 254 1262 254 1262 360 1299 c 1,7,-1
 360 960 l 1,8,-1
 360 480 l 2,9,10
 360 430 360 430 395 395 c 128,-1,11
 430 360 430 360 480 360 c 128,-1,12
 530 360 530 360 565 395 c 128,-1,13
 600 430 600 430 600 480 c 2,14,-1
 600 960 l 1,15,-1
 600 1299 l 1,16,17
 706 1262 706 1262 773 1169 c 128,-1,18
 840 1076 840 1076 840 960 c 2,19,-1
 840 480 l 2,20,21
 840 331 840 331 734.5 225.5 c 128,-1,0
 629 120 629 120 480 120 c 128,-1,1
EndSplineSet
Validated: 1
EndChar

StartChar: v
Encoding: 118 118 87
Width: 960
Flags: W
LayerCount: 2
Fore
SplineSet
480 120 m 128,-1,1
 331 120 331 120 225.5 225.5 c 128,-1,2
 120 331 120 331 120 480 c 2,3,-1
 120 960 l 2,4,5
 120 1076 120 1076 187 1169 c 128,-1,6
 254 1262 254 1262 360 1299 c 1,7,-1
 360 960 l 1,8,-1
 360 480 l 2,9,10
 360 430 360 430 395 395 c 128,-1,11
 430 360 430 360 480 360 c 128,-1,12
 530 360 530 360 565 395 c 128,-1,13
 600 430 600 430 600 480 c 2,14,-1
 600 960 l 1,15,-1
 600 1299 l 1,16,17
 706 1262 706 1262 773 1169 c 128,-1,18
 840 1076 840 1076 840 960 c 2,19,-1
 840 480 l 2,20,21
 840 331 840 331 734.5 225.5 c 128,-1,0
 629 120 629 120 480 120 c 128,-1,1
EndSplineSet
Validated: 1
EndChar

StartChar: w
Encoding: 119 119 88
Width: 1440
Flags: W
LayerCount: 2
Fore
SplineSet
480 120 m 0,0,1
 331 120 331 120 225.5 225.5 c 128,-1,2
 120 331 120 331 120 480 c 2,3,-1
 120 960 l 1,4,-1
 121 960 l 1,5,6
 129 1067 129 1067 195 1151.5 c 128,-1,7
 261 1236 261 1236 360 1271 c 1,8,-1
 360 480 l 2,9,10
 360 430 360 430 395 395 c 128,-1,11
 430 360 430 360 480 360 c 128,-1,12
 530 360 530 360 565 395 c 128,-1,13
 600 430 600 430 600 480 c 2,14,-1
 600 960 l 1,15,-1
 601 960 l 1,16,17
 612 1103 612 1103 720 1200 c 1,18,19
 828 1103 828 1103 839 960 c 1,20,-1
 840 960 l 1,21,-1
 840 480 l 2,22,23
 840 430 840 430 875 395 c 128,-1,24
 910 360 910 360 960 360 c 128,-1,25
 1010 360 1010 360 1045 395 c 128,-1,26
 1080 430 1080 430 1080 480 c 2,27,-1
 1080 1271 l 1,28,29
 1179 1236 1179 1236 1245 1151.5 c 128,-1,30
 1311 1067 1311 1067 1319 960 c 1,31,-1
 1320 960 l 1,32,-1
 1320 480 l 2,33,34
 1320 331 1320 331 1214.5 225.5 c 128,-1,35
 1109 120 1109 120 960 120 c 0,36,37
 823 120 823 120 720 212 c 1,38,39
 617 120 617 120 480 120 c 0,0,1
EndSplineSet
Validated: 1
EndChar

StartChar: x
Encoding: 120 120 89
Width: 960
Flags: W
LayerCount: 2
Fore
SplineSet
360 1299 m 1,0,-1
 360 960 l 2,1,2
 360 910 360 910 395 875 c 128,-1,3
 430 840 430 840 480 840 c 128,-1,4
 530 840 530 840 565 875 c 128,-1,5
 600 910 600 910 600 960 c 2,6,-1
 600 1299 l 1,7,8
 706 1262 706 1262 773 1169 c 128,-1,9
 840 1076 840 1076 840 960 c 0,10,11
 840 823 840 823 748 720 c 1,12,13
 840 617 840 617 840 480 c 0,14,15
 840 364 840 364 773 271 c 128,-1,16
 706 178 706 178 600 141 c 1,17,-1
 600 480 l 2,18,19
 600 530 600 530 565 565 c 128,-1,20
 530 600 530 600 480 600 c 128,-1,21
 430 600 430 600 395 565 c 128,-1,22
 360 530 360 530 360 480 c 2,23,-1
 360 141 l 1,24,25
 254 178 254 178 187 271 c 128,-1,26
 120 364 120 364 120 480 c 0,27,28
 120 617 120 617 212 720 c 1,29,30
 120 823 120 823 120 960 c 0,31,32
 120 1076 120 1076 187 1169 c 128,-1,33
 254 1262 254 1262 360 1299 c 1,0,-1
EndSplineSet
Validated: 1
EndChar

StartChar: y
Encoding: 121 121 90
Width: 960
Flags: W
LayerCount: 2
Fore
SplineSet
360 1299 m 1,0,-1
 360 960 l 2,1,2
 360 910 360 910 395 875 c 128,-1,3
 430 840 430 840 480 840 c 128,-1,4
 530 840 530 840 565 875 c 128,-1,5
 600 910 600 910 600 960 c 2,6,-1
 600 1299 l 1,7,8
 706 1262 706 1262 773 1169 c 128,-1,9
 840 1076 840 1076 840 960 c 0,10,11
 840 823 840 823 748 720 c 1,12,13
 840 617 840 617 840 480 c 0,14,15
 840 364 840 364 773 271 c 128,-1,16
 706 178 706 178 600 141 c 1,17,-1
 600 480 l 2,18,19
 600 530 600 530 565 565 c 128,-1,20
 530 600 530 600 480 600 c 0,21,22
 331 600 331 600 225.5 705.5 c 128,-1,23
 120 811 120 811 120 960 c 0,24,25
 120 1076 120 1076 187 1169 c 128,-1,26
 254 1262 254 1262 360 1299 c 1,0,-1
EndSplineSet
Validated: 1
EndChar

StartChar: z
Encoding: 122 122 91
Width: 960
Flags: W
LayerCount: 2
Fore
SplineSet
501 600 m 0,0,1
 452 600 452 600 416.5 565 c 128,-1,2
 381 530 381 530 381 480 c 0,3,4
 381 431 381 431 416.5 395.5 c 128,-1,5
 452 360 452 360 501 360 c 2,6,-1
 840 360 l 1,7,8
 803 254 803 254 710 187 c 128,-1,9
 617 120 617 120 501 120 c 0,10,11
 352 120 352 120 246.5 225.5 c 128,-1,12
 141 331 141 331 141 480 c 2,13,-1
 141 489 l 1,14,15
 145 636 145 636 250.5 738 c 128,-1,16
 356 840 356 840 501 840 c 0,17,18
 550 840 550 840 585.5 875 c 128,-1,19
 621 910 621 910 621 960 c 128,-1,20
 621 1010 621 1010 585.5 1045 c 128,-1,21
 550 1080 550 1080 501 1080 c 2,22,-1
 161 1080 l 1,23,24
 198 1186 198 1186 291.5 1253 c 128,-1,25
 385 1320 385 1320 501 1320 c 0,26,27
 650 1320 650 1320 755.5 1214.5 c 128,-1,28
 861 1109 861 1109 861 960 c 0,29,30
 861 958 861 958 860.5 955 c 128,-1,31
 860 952 860 952 860 951 c 0,32,33
 856 803 856 803 751 701.5 c 128,-1,34
 646 600 646 600 501 600 c 0,0,1
EndSplineSet
Validated: 1
EndChar

